<svg version="1.2" xmlns="http://www.w3.org/2000/svg" viewBox="0 0 136 21" width="136" height="21"><style></style><path fill-rule="evenodd" d="m15.6 19.5c3.8-2.2 5.6-6.3 5.2-10.3l-3.7 2.2c-0.3 1.9-1.5 3.8-3.3 4.9-3.2 1.8-7.3 0.7-9.2-2.5-1.8-3.2-0.7-7.3 2.5-9.1 2.5-1.5 5.6-1.1 7.7 0.7l-5.7 3.3-0.9 4.8 11.9-6.9q-0.3-0.7-0.7-1.3c-2.8-5-9.2-6.7-14.2-3.9-5 2.9-6.7 9.3-3.8 14.3 2.9 5 9.2 6.7 14.2 3.8z"/><path  d="m115.5 3v9c0 1.4-0.5 2.5-1.6 3.5-1 1-2.1 1.4-3.5 1.4q-2 0-3.5-1.4c-1-1-1.5-2.1-1.5-3.5v-11.5l-4.1 2.4v8.9c0 2.5 0.9 4.7 2.6 6.4q2.6 2.7 6.5 2.7c2.6 0 4.8-0.9 6.6-2.7 1.7-1.7 2.6-3.9 2.6-6.4v-11.2z"/><path  d="m45.2 13.5l-0.8 1.6q-1.6 2.9-4.1 4.3-2.6 1.5-5.8 1.4-4.5 0-7.7-3c-2.1-2-3.2-4.4-3.2-7.3q-0.1-4.3 3.1-7.3v-0.1c2.2-2 4.8-3.1 7.8-3.1q3.2 0 5.9 1.6c1.8 1.1 3.1 2.4 3.8 4.1l0.9 1.9h-4.5l-0.2-0.4c-1.3-2.1-3.2-3.2-5.9-3.3-1.7 0-3.2 0.6-4.6 1.9-1.5 1.3-2.2 2.9-2.2 4.6 0 1.8 0.7 3.3 2 4.7q2 1.9 4.8 1.8c2.7 0 4.6-1 5.9-3.1l0.3-0.3z"/><path fill-rule="evenodd" d="m56.9 0.1c2.8 0.1 5.3 1.1 7.2 3.2 2 2 3 4.4 3 7.2q0 4.3-3.2 7.4c-2.1 2-4.7 3-7.6 2.9-2.8 0-5.3-1.1-7.2-3.1q-3-3-3-7.2c0-2.9 1.1-5.4 3.2-7.4 2.1-2.1 4.7-3.1 7.6-3zm-0.5 16.8c1.9 0.1 3.4-0.5 4.7-1.9 1.3-1.3 2-2.9 1.9-4.7q-0.1-2.6-1.9-4.5c-1.2-1.2-2.6-1.8-4.3-1.8h-0.1c-1.8 0-3.2 0.6-4.5 1.8-1.3 1.3-1.9 2.7-2 4.5 0 1.8 0.6 3.3 1.8 4.6 1.2 1.3 2.6 1.9 4.4 2z"/><path  d="m98.5 20.4h-4.2v-12q0-1.9-1.1-3.2-1-1.2-2.7-1.2c-1.2 0-2.2 0.3-3.1 1.1q-1.2 1.1-1.2 2.7v12.6h-4.2v-12.6c0-1.1-0.4-2-1.3-2.7q-1.2-1.1-3-1.1c-1.2 0-2 0.4-2.7 1.2-0.7 0.8-1.1 1.9-1.1 3.2v12h-4.1v-11.7c0-2.5 0.7-4.5 2.2-6.1 1.4-1.5 3.2-2.3 5.5-2.5q2.2-0.2 4.1 0.8 1.4 0.8 2.5 2.1 1.1-1.3 2.5-2.1 1.8-1 4.1-0.8 3.3 0.3 5.5 2.5c1.5 1.5 2.3 3.6 2.3 6.1z"/><path  d="m126.6 13.4v1.4c0 0.3 0.2 0.8 0.9 1.4 0.6 0.6 1.1 0.8 1.6 0.8h0.1c0.9-0.1 1.5-0.3 1.9-0.8 0.4-0.3 0.7-0.9 0.7-1.6 0-0.7-0.2-1.1-0.5-1.5-0.3-0.4-0.9-0.8-1.7-1l-2.2-0.7c-1.3-0.4-2.4-1-3.1-1.9-0.7-1-1.1-2.1-1.1-3.4-0.1-1.6 0.5-3.1 1.7-4.2q1.7-1.7 4.3-1.8c1.5-0.1 2.9 0.4 4.1 1.4q1.9 1.4 2.1 3.7l0.1 1.4h-4.3v-1.2q0-0.6-0.5-1c-0.4-0.2-0.9-0.4-1.5-0.4-1 0-1.8 0.8-1.9 1.8q0 0.7 0.4 1.2c0.3 0.3 0.8 0.6 1.5 0.8l2.2 0.8q2.1 0.6 3.3 2.1 1.1 1.4 1.3 3.4c0.1 1.9-0.6 3.6-2 4.9h-0.1q-2.2 2-5.1 1.9c-1.8-0.1-3.3-0.9-4.5-2.1q-1.8-1.9-1.8-4.6v-0.8z"/></svg>